#include "pitches.h"

// When performing this, one ought to play AAB (i.e. repeat A).
#define MELODY_LENGTH 74
int melody[MELODY_LENGTH][2] = {
  // BEGIN PART A
  {NOTE_E4, 3},
  {      0, 1},
  {NOTE_B3, 2},
  {NOTE_C4, 2},
  {NOTE_D4, 3},
  {      0, 1},
  {NOTE_C4, 2},
  {NOTE_B3, 2},
  {NOTE_A3, 3},
  {      0, 1},
  {NOTE_A3, 2},
  {NOTE_C4, 2},
  {NOTE_E4, 3},
  {      0, 1},
  {NOTE_D4, 2},
  {NOTE_C4, 2},
  {NOTE_B3, 4},
  {      0, 2},
  {NOTE_C4, 2},
  {NOTE_D4, 3},
  {      0, 1},
  {NOTE_E4, 3},
  {      0, 1},
  {NOTE_C4, 3},
  {      0, 1},
  {NOTE_A3, 3},
  {      0, 1},
  {NOTE_A3, 3},
  {      0, 5},

  {      0, 2},
  {NOTE_D4, 3},
  {      0, 1},
  {NOTE_F4, 2},
  {NOTE_A4, 3},
  {      0, 1},
  {NOTE_G4, 2},
  {NOTE_F4, 2},
  {NOTE_E4, 4},
  {      0, 2},
  {NOTE_C4, 2},
  {NOTE_E4, 3},
  {      0, 1},
  {NOTE_D4, 2},
  {NOTE_C4, 2},
  {NOTE_B3, 3},
  {      0, 1},
  {NOTE_B3, 2},
  {NOTE_C4, 2},
  {NOTE_D4, 3},
  {      0, 1},
  {NOTE_E4, 3},
  {      0, 1},
  {NOTE_C4, 3},
  {      0, 1},
  {NOTE_A4, 3},
  {      0, 1},
  {NOTE_A4, 3},
  {      0, 5},
  // END PART A

  // BEGIN PART B
  {NOTE_E3,  4},
  {NOTE_C3,  4},
  {NOTE_D3,  4},
  {NOTE_B2,  4},
  {NOTE_C3,  4},
  {NOTE_A2,  4},
  {NOTE_GS2, 4},
  {      0,  4},
  {NOTE_E3,  4},
  {NOTE_C3,  4},
  {NOTE_D3,  4},
  {NOTE_B2,  4},
  {NOTE_C3,  4},
  {NOTE_A3,  4},
  {NOTE_GS3, 4},
  {      0,  4}
  // END PART B
};

